<svg width="209" height="112" viewBox="0 0 209 112" fill="none" xmlns="http://www.w3.org/2000/svg">
<path d="M160.422 41.5H149.383C145.731 31.7522 138.478 22.9601 128.465 16.0564C118.225 8.99624 105.484 4.17604 91.6979 2.1198C77.9101 0.0634035 63.6022 0.849653 50.3931 4.39289C37.1856 7.93566 25.5781 14.1007 16.9075 22.2178C8.23418 30.3374 2.83432 40.0997 1.39046 50.4097C-0.0541818 60.7253 2.52976 71.1064 8.80118 80.3612C15.0673 89.6082 24.7566 97.3543 36.7289 102.755C48.7029 108.156 62.509 111.008 76.5814 111H160.422C172.954 111 185.014 107.395 193.944 100.925C202.879 94.4508 208 85.5893 208 76.25C208 66.9107 202.879 58.0492 193.944 51.5754C185.014 45.1049 172.954 41.5 160.422 41.5Z" fill="white" fill-opacity="0.99" stroke="black" stroke-width="2" stroke-linecap="round" stroke-linejoin="round"/>
</svg>
