<svg width="16" height="15" viewBox="0 0 16 15" fill="none" xmlns="http://www.w3.org/2000/svg">
<path d="M4.15798 11.0249C4.22032 11.0457 4.27794 11.0786 4.32757 11.1216C4.37719 11.1647 4.41784 11.2171 4.44718 11.2759C4.47653 11.3347 4.494 11.3987 4.4986 11.4643C4.5032 11.5298 4.49484 11.5956 4.47398 11.6579L3.97398 13.1579C3.95515 13.2225 3.92349 13.2826 3.88088 13.3346C3.83828 13.3867 3.78561 13.4296 3.72604 13.4608C3.66646 13.492 3.6012 13.5109 3.53416 13.5163C3.46712 13.5217 3.39968 13.5135 3.33587 13.4923C3.27206 13.471 3.2132 13.4371 3.16281 13.3925C3.11242 13.348 3.07154 13.2937 3.04261 13.233C3.01368 13.1723 2.99729 13.1064 2.99443 13.0392C2.99158 12.972 3.00231 12.9049 3.02598 12.8419L3.52598 11.3419C3.56777 11.2161 3.65782 11.112 3.77634 11.0525C3.89486 10.9931 4.03214 10.9832 4.15798 11.0249ZM7.15798 11.0249C7.22032 11.0457 7.27794 11.0786 7.32757 11.1216C7.37719 11.1647 7.41784 11.2171 7.44718 11.2759C7.47653 11.3347 7.494 11.3987 7.4986 11.4643C7.5032 11.5298 7.49484 11.5956 7.47398 11.6579L6.47398 14.6579C6.45515 14.7225 6.42349 14.7826 6.38088 14.8346C6.33828 14.8867 6.28561 14.9296 6.22604 14.9608C6.16646 14.992 6.1012 15.0109 6.03416 15.0163C5.96712 15.0217 5.89968 15.0135 5.83587 14.9923C5.77206 14.971 5.7132 14.9371 5.66281 14.8925C5.61242 14.848 5.57154 14.7937 5.54261 14.733C5.51368 14.6723 5.49729 14.6064 5.49443 14.5392C5.49158 14.472 5.50231 14.4049 5.52598 14.3419L6.52598 11.3419C6.56777 11.2161 6.65782 11.112 6.77634 11.0525C6.89486 10.9931 7.03214 10.9832 7.15798 11.0249ZM10.158 11.0249C10.2203 11.0457 10.2779 11.0786 10.3276 11.1216C10.3772 11.1647 10.4178 11.2171 10.4472 11.2759C10.4765 11.3347 10.494 11.3987 10.4986 11.4643C10.5032 11.5298 10.4948 11.5956 10.474 11.6579L9.97398 13.1579C9.95515 13.2225 9.92349 13.2826 9.88088 13.3346C9.83828 13.3867 9.78561 13.4296 9.72604 13.4608C9.66646 13.492 9.6012 13.5109 9.53416 13.5163C9.46712 13.5217 9.39968 13.5135 9.33587 13.4923C9.27206 13.471 9.2132 13.4371 9.16281 13.3925C9.11242 13.348 9.07154 13.2937 9.04261 13.233C9.01368 13.1723 8.99729 13.1064 8.99444 13.0392C8.99158 12.972 9.00231 12.9049 9.02598 12.8419L9.52598 11.3419C9.56777 11.2161 9.65782 11.112 9.77634 11.0525C9.89486 10.9931 10.0321 10.9832 10.158 11.0249ZM13.158 11.0249C13.2203 11.0457 13.2779 11.0786 13.3276 11.1216C13.3772 11.1647 13.4178 11.2171 13.4472 11.2759C13.4765 11.3347 13.494 11.3987 13.4986 11.4643C13.5032 11.5298 13.4948 11.5956 13.474 11.6579L12.474 14.6579C12.4552 14.7225 12.4235 14.7826 12.3809 14.8346C12.3383 14.8867 12.2856 14.9296 12.226 14.9608C12.1665 14.992 12.1012 15.0109 12.0342 15.0163C11.9671 15.0217 11.8997 15.0135 11.8359 14.9923C11.7721 14.971 11.7132 14.9371 11.6628 14.8925C11.6124 14.848 11.5715 14.7937 11.5426 14.733C11.5137 14.6723 11.4973 14.6064 11.4944 14.5392C11.4916 14.472 11.5023 14.4049 11.526 14.3419L12.526 11.3419C12.5678 11.2161 12.6578 11.112 12.7763 11.0525C12.8949 10.9931 13.0321 10.9832 13.158 11.0249ZM13.405 4.02692C13.1973 2.98008 12.6602 2.02713 11.8722 1.3074C11.0842 0.58767 10.0866 0.138909 9.02523 0.0267313C7.9639 -0.0854458 6.89452 0.144845 5.97345 0.683932C5.05237 1.22302 4.32791 2.04263 3.90598 3.02292C3.43282 2.96841 2.95351 3.01105 2.4974 3.14823C2.04129 3.28541 1.61798 3.51423 1.25338 3.8207C0.888782 4.12717 0.590571 4.50482 0.377005 4.93055C0.163439 5.35628 0.0390124 5.82111 0.0113432 6.2966C-0.0163259 6.77209 0.0533446 7.24822 0.216089 7.69585C0.378834 8.14347 0.631228 8.55317 0.957818 8.89986C1.28441 9.24654 1.67832 9.52293 2.11544 9.71208C2.55256 9.90124 3.02369 9.99918 3.49998 9.99992H13C13.7611 10.0008 14.4941 9.71234 15.0505 9.19299C15.6069 8.67365 15.9451 7.96224 15.9965 7.20287C16.048 6.44351 15.809 5.69296 15.3278 5.10326C14.8466 4.51356 14.1592 4.1288 13.405 4.02692Z" fill="black"/>
</svg>
