<svg width="197" height="138" viewBox="0 0 197 138" fill="none" xmlns="http://www.w3.org/2000/svg">
<g filter="url(#filter0_d_27_1251)">
<path d="M75.0719 109.595C75.9906 111.442 76.45 113.319 76.45 115.227C76.45 117.259 76.0562 119.167 75.2687 120.952C74.4812 122.737 73.3328 124.306 71.8234 125.661C70.3141 127.015 68.6406 128.061 66.8031 128.8C64.9656 129.538 62.9312 129.938 60.7 130C58.5344 130 56.5 129.631 54.5969 128.892C52.6937 128.153 51.0203 127.076 49.5766 125.661C48.1328 124.245 47.0172 122.675 46.2297 120.952C45.4422 119.228 45.0156 117.32 44.95 115.227C44.95 113.319 45.4094 111.442 46.3281 109.595L60.7 82.7273L75.0719 109.595ZM150.672 109.595C151.591 111.442 152.05 113.319 152.05 115.227C152.05 117.259 151.656 119.167 150.869 120.952C150.081 122.737 148.933 124.306 147.423 125.661C145.914 127.015 144.241 128.061 142.403 128.8C140.566 129.538 138.531 129.938 136.3 130C134.134 130 132.1 129.631 130.197 128.892C128.294 128.153 126.62 127.076 125.177 125.661C123.733 124.245 122.617 122.675 121.83 120.952C121.042 119.228 120.616 117.32 120.55 115.227C120.55 113.319 121.009 111.442 121.928 109.595L136.3 82.7273L150.672 109.595ZM112.872 85.9588C113.791 87.8054 114.25 89.6828 114.25 91.5909C114.25 93.6222 113.856 95.5303 113.069 97.3154C112.281 99.1004 111.133 100.67 109.623 102.024C108.114 103.378 106.441 104.425 104.603 105.163C102.766 105.902 100.731 106.302 98.5 106.364C96.3344 106.364 94.3 105.994 92.3969 105.256C90.4937 104.517 88.8203 103.44 87.3766 102.024C85.9328 100.608 84.8172 99.0388 84.0297 97.3154C83.2422 95.5919 82.8156 93.6837 82.75 91.5909C82.75 89.6828 83.2094 87.8054 84.1281 85.9588L98.5 59.0909L112.872 85.9588ZM164.748 36.5625C168.883 37.6089 172.656 39.2093 176.069 41.3636C179.481 43.518 182.467 46.134 185.027 49.2116C187.586 52.2893 189.555 55.6439 190.933 59.2756C192.311 62.9072 193 66.785 193 70.9091C193 74.9716 192.278 78.8494 190.834 82.5426C189.391 86.2358 187.389 89.6212 184.83 92.6989C182.27 95.7765 179.219 98.3925 175.675 100.547C172.131 102.701 168.259 104.271 164.059 105.256L158.153 94.1761C161.303 93.8068 164.223 92.9759 166.914 91.6832C169.605 90.3906 171.967 88.6672 174.002 86.5128C176.036 84.3584 177.578 81.9886 178.628 79.4034C179.678 76.8182 180.269 73.9867 180.4 70.9091C180.4 67.5237 179.744 64.3845 178.431 61.4915C177.119 58.5985 175.248 56.1056 172.82 54.0128C170.392 51.92 167.636 50.2888 164.552 49.1193C161.467 47.9498 158.12 47.3343 154.511 47.2727C153.723 42.2254 152.05 37.5474 149.491 33.2386C146.931 28.9299 143.748 25.1752 139.942 21.9744C136.136 18.7737 131.739 16.2808 126.752 14.4957C121.764 12.7107 116.547 11.8182 111.1 11.8182C106.047 11.8182 101.256 12.5876 96.7281 14.1264C92.2 15.6652 88.0328 17.7888 84.2266 20.4972C80.4203 23.2055 77.2047 26.4678 74.5797 30.2841C71.9547 34.1004 69.9531 38.2552 68.575 42.7486C65.6875 40.4096 62.5047 38.6245 59.0266 37.3935C55.5484 36.1624 51.9062 35.5161 48.1 35.4545C43.7687 35.4545 39.7 36.224 35.8938 37.7628C32.0875 39.3016 28.7406 41.3944 25.8531 44.0412C22.9656 46.688 20.7016 49.8272 19.0609 53.4588C17.4203 57.0904 16.6 60.9375 16.6 65C16.6 68.2623 17.1578 71.4015 18.2734 74.4176C19.3891 77.4337 20.9312 80.1728 22.9 82.6349C24.8687 85.0971 27.2641 87.2514 30.0859 89.098C32.9078 90.9446 35.9922 92.3296 39.3391 93.2529L33.7281 103.778C29.3312 102.363 25.3281 100.362 21.7188 97.777C18.1094 95.1918 14.9594 92.2064 12.2688 88.821C9.57812 85.4356 7.54375 81.7424 6.16562 77.7415C4.7875 73.7405 4.06563 69.4934 4 65C4 59.2756 5.14844 53.9205 7.44531 48.9347C9.74219 43.9489 12.8922 39.5786 16.8953 35.8239C20.8984 32.0691 25.5578 29.1146 30.8734 26.9602C36.1891 24.8059 41.9312 23.6979 48.1 23.6364C52.9562 23.6364 57.7797 24.4058 62.5703 25.9446C65.1297 21.9437 68.1484 18.3428 71.6266 15.142C75.1047 11.9413 78.9437 9.23296 83.1437 7.01705C87.3437 4.80114 91.8063 3.07765 96.5312 1.84659C101.256 0.61553 106.112 0 111.1 0C117.203 0 123.044 0.892519 128.622 2.67756C134.2 4.46259 139.384 6.95549 144.175 10.1562C148.966 13.357 153.1 17.2041 156.578 21.6974C160.056 26.1908 162.78 31.1458 164.748 36.5625Z" fill="black"/>
</g>
<defs>
<filter id="filter0_d_27_1251" x="0" y="0" width="197" height="138" filterUnits="userSpaceOnUse" color-interpolation-filters="sRGB">
<feFlood flood-opacity="0" result="BackgroundImageFix"/>
<feColorMatrix in="SourceAlpha" type="matrix" values="0 0 0 0 0 0 0 0 0 0 0 0 0 0 0 0 0 0 127 0" result="hardAlpha"/>
<feOffset dy="4"/>
<feGaussianBlur stdDeviation="2"/>
<feComposite in2="hardAlpha" operator="out"/>
<feColorMatrix type="matrix" values="0 0 0 0 0 0 0 0 0 0 0 0 0 0 0 0 0 0 0.25 0"/>
<feBlend mode="normal" in2="BackgroundImageFix" result="effect1_dropShadow_27_1251"/>
<feBlend mode="normal" in="SourceGraphic" in2="effect1_dropShadow_27_1251" result="shape"/>
</filter>
</defs>
</svg>
