<svg width="161" height="125" viewBox="0 0 161 125" fill="none" xmlns="http://www.w3.org/2000/svg">
<path d="M151.15 43.0081C150.325 50.3121 146.975 57.2729 141.491 63.0758C136.007 68.8788 128.617 73.284 120.185 75.7759C111.753 78.2678 102.628 78.7434 93.8779 77.1471C85.1276 75.5507 77.114 71.9484 70.7746 66.7617C64.4353 61.575 60.0325 55.0183 58.0814 47.859C56.1303 40.6997 56.7116 33.2338 59.7572 26.3349C62.8029 19.436 68.187 13.3895 75.2795 8.90282C82.3721 4.41617 90.8796 1.67499 99.8068 1C94.5802 6.78531 92.0651 13.9133 92.719 21.0876C93.3729 28.2618 97.1523 35.0058 103.37 40.0929C109.587 45.1799 117.83 48.2722 126.599 48.8072C135.367 49.3422 144.079 47.2844 151.15 43.0081Z" fill="#E0D8D8" stroke="black" stroke-width="2" stroke-linecap="round" stroke-linejoin="round"/>
<path d="M123.328 69.5796H115.036C112.201 62.1165 106.636 55.3967 98.987 50.1185C91.1116 44.6843 81.3196 40.978 70.7301 39.3973C60.1395 37.8164 49.1492 38.4206 39.0011 41.145C28.8548 43.869 19.9293 48.6112 13.2566 54.8631C6.58133 61.1175 2.41553 68.647 1.30128 76.6101C0.186253 84.5787 2.18206 92.5933 7.01465 99.7308C11.842 106.86 19.2995 112.823 28.5007 116.977C37.7035 121.132 48.3103 123.324 59.1185 123.318H123.328C132.968 123.318 142.254 120.543 149.139 115.551C156.028 110.555 160 103.698 160 96.4489C160 89.2 156.028 82.3431 149.139 77.347C142.254 72.3543 132.968 69.5796 123.328 69.5796Z" fill="#E0D8D8" fill-opacity="0.99" stroke="black" stroke-width="2" stroke-linecap="round" stroke-linejoin="round"/>
</svg>
