<svg width="153" height="147" viewBox="0 0 153 147" fill="none" xmlns="http://www.w3.org/2000/svg">
<path d="M107.5 74C107.5 91.3276 93.2429 105.5 75.5 105.5C57.7571 105.5 43.5 91.3276 43.5 74C43.5 56.6724 57.7571 42.5 75.5 42.5C93.2429 42.5 107.5 56.6724 107.5 74Z" stroke="#FFDD40" stroke-width="11"/>
<rect x="36.0562" y="49.7507" width="16" height="32.3842" rx="8" transform="rotate(112.572 36.0562 49.7507)" fill="#FFDD40"/>
<rect x="68.8727" y="27.3325" width="16" height="32.3842" rx="8" transform="rotate(147.566 68.8727 27.3325)" fill="#FFDD40"/>
<rect x="104.205" y="36.1143" width="16" height="32.3842" rx="8" transform="rotate(-152.596 104.205 36.1143)" fill="#FFDD40"/>
<rect x="122.468" y="70.4771" width="16" height="32.3842" rx="8" transform="rotate(-111.699 122.468 70.4771)" fill="#FFDD40"/>
<rect x="115.434" y="96.0579" width="16" height="32.3842" rx="8" transform="rotate(-60.4656 115.434 96.0579)" fill="#FFDD40"/>
<rect x="86.0988" y="118.047" width="16" height="32.3842" rx="8" transform="rotate(-27.7325 86.0988 118.047)" fill="#FFDD40"/>
<rect x="45.8677" y="110" width="16" height="32.3842" rx="8" transform="rotate(29.3393 45.8677 110)" fill="#FFDD40"/>
<rect x="30.3182" y="84" width="16" height="32.3842" rx="8" transform="rotate(69.4236 30.3182 84)" fill="#FFDD40"/>
</svg>
