<svg width="480" height="480" viewBox="0 0 480 480" fill="none" xmlns="http://www.w3.org/2000/svg">
<path d="M389.84 120.9C383.152 89.2077 366.467 60.4992 342.24 39.0002C324.272 22.9259 302.759 11.3253 279.456 5.14422C256.153 -1.03689 231.719 -1.62357 208.146 3.43203C184.573 8.48763 162.528 19.0424 143.809 34.2358C125.09 49.4293 110.226 68.8313 100.43 90.8602C44.5 94.1602 0 140.65 0 197.33C0 256.15 47.91 304 106.8 304H173.11L160.22 381.37C159.838 383.662 159.96 386.01 160.577 388.25C161.194 390.49 162.292 392.569 163.793 394.341C165.295 396.114 167.165 397.539 169.273 398.516C171.381 399.494 173.677 400 176 400H208V464C208.006 467.385 209.085 470.681 211.082 473.413C213.079 476.146 215.891 478.175 219.114 479.209C222.337 480.242 225.805 480.227 229.019 479.165C232.232 478.104 235.027 476.05 237 473.3L317 361.3C318.708 358.909 319.724 356.094 319.938 353.164C320.152 350.234 319.554 347.301 318.212 344.688C316.869 342.074 314.832 339.881 312.325 338.349C309.819 336.816 306.938 336.004 304 336H276.49L284.49 304H388.33C412.419 303.903 435.498 294.318 452.568 277.32C469.637 260.323 479.32 237.284 479.519 213.196C479.718 189.108 470.416 165.912 453.629 148.636C436.842 131.359 413.924 121.394 389.84 120.9Z" fill="black"/>
</svg>
